<mxfile host="Electron" modified="2023-08-24T14:14:59.619Z" agent="Mozilla/5.0 (Windows NT 10.0; Win64; x64) AppleWebKit/537.36 (KHTML, like Gecko) draw.io/21.6.8 Chrome/114.0.5735.289 Electron/25.5.0 Safari/537.36" etag="ABgwF1xM2jm4Q8izYigO" version="21.6.8" type="device" pages="3">
  <diagram name="Use Case " id="YUDO87uhGS42jKUQU5Ox">
    <mxGraphModel dx="1385" dy="1334" grid="1" gridSize="10" guides="1" tooltips="1" connect="1" arrows="1" fold="1" page="1" pageScale="1" pageWidth="1169" pageHeight="827" math="0" shadow="0">
      <root>
        <mxCell id="0" />
        <mxCell id="1" parent="0" />
        <mxCell id="adfSWbU6CrXa7fZq9xQA-1" value="Use Case Diagram - CNC Milling Machine" style="shape=umlFrame;whiteSpace=wrap;html=1;pointerEvents=0;recursiveResize=0;container=1;collapsible=0;width=160;" vertex="1" parent="1">
          <mxGeometry x="50" y="100" width="1010" height="680" as="geometry" />
        </mxCell>
        <mxCell id="adfSWbU6CrXa7fZq9xQA-31" style="rounded=0;orthogonalLoop=1;jettySize=auto;html=1;exitX=0.5;exitY=0.5;exitDx=0;exitDy=0;exitPerimeter=0;entryX=0;entryY=0;entryDx=0;entryDy=0;endArrow=none;endFill=0;" edge="1" parent="adfSWbU6CrXa7fZq9xQA-1" source="adfSWbU6CrXa7fZq9xQA-2" target="adfSWbU6CrXa7fZq9xQA-6">
          <mxGeometry relative="1" as="geometry" />
        </mxCell>
        <mxCell id="adfSWbU6CrXa7fZq9xQA-33" style="edgeStyle=none;shape=connector;rounded=0;orthogonalLoop=1;jettySize=auto;html=1;exitX=0.5;exitY=0.5;exitDx=0;exitDy=0;exitPerimeter=0;entryX=0;entryY=0;entryDx=0;entryDy=0;labelBackgroundColor=default;strokeColor=default;fontFamily=Helvetica;fontSize=11;fontColor=default;endArrow=none;endFill=0;" edge="1" parent="adfSWbU6CrXa7fZq9xQA-1" source="adfSWbU6CrXa7fZq9xQA-2" target="adfSWbU6CrXa7fZq9xQA-15">
          <mxGeometry relative="1" as="geometry" />
        </mxCell>
        <mxCell id="adfSWbU6CrXa7fZq9xQA-34" style="edgeStyle=none;shape=connector;rounded=0;orthogonalLoop=1;jettySize=auto;html=1;exitX=0.5;exitY=0.5;exitDx=0;exitDy=0;exitPerimeter=0;entryX=0;entryY=0.5;entryDx=0;entryDy=0;labelBackgroundColor=default;strokeColor=default;fontFamily=Helvetica;fontSize=11;fontColor=default;endArrow=none;endFill=0;" edge="1" parent="adfSWbU6CrXa7fZq9xQA-1" source="adfSWbU6CrXa7fZq9xQA-2" target="adfSWbU6CrXa7fZq9xQA-8">
          <mxGeometry relative="1" as="geometry" />
        </mxCell>
        <mxCell id="adfSWbU6CrXa7fZq9xQA-35" style="edgeStyle=none;shape=connector;rounded=0;orthogonalLoop=1;jettySize=auto;html=1;exitX=0.5;exitY=0.5;exitDx=0;exitDy=0;exitPerimeter=0;entryX=0.059;entryY=0.089;entryDx=0;entryDy=0;entryPerimeter=0;labelBackgroundColor=default;strokeColor=default;fontFamily=Helvetica;fontSize=11;fontColor=default;endArrow=none;endFill=0;" edge="1" parent="adfSWbU6CrXa7fZq9xQA-1" source="adfSWbU6CrXa7fZq9xQA-2" target="adfSWbU6CrXa7fZq9xQA-29">
          <mxGeometry relative="1" as="geometry" />
        </mxCell>
        <mxCell id="adfSWbU6CrXa7fZq9xQA-38" style="edgeStyle=none;shape=connector;rounded=0;orthogonalLoop=1;jettySize=auto;html=1;exitX=0.5;exitY=0.5;exitDx=0;exitDy=0;exitPerimeter=0;entryX=0;entryY=0;entryDx=0;entryDy=0;labelBackgroundColor=default;strokeColor=default;fontFamily=Helvetica;fontSize=11;fontColor=default;endArrow=none;endFill=0;" edge="1" parent="adfSWbU6CrXa7fZq9xQA-1" source="adfSWbU6CrXa7fZq9xQA-2" target="adfSWbU6CrXa7fZq9xQA-19">
          <mxGeometry relative="1" as="geometry" />
        </mxCell>
        <mxCell id="adfSWbU6CrXa7fZq9xQA-2" value="Operator" style="shape=umlActor;verticalLabelPosition=bottom;verticalAlign=top;html=1;outlineConnect=0;" vertex="1" parent="adfSWbU6CrXa7fZq9xQA-1">
          <mxGeometry x="100" y="230" width="50" height="100" as="geometry" />
        </mxCell>
        <mxCell id="adfSWbU6CrXa7fZq9xQA-8" value="" style="shape=ellipse;container=1;horizontal=1;horizontalStack=0;resizeParent=1;resizeParentMax=0;resizeLast=0;html=1;dashed=0;collapsible=0;" vertex="1" parent="adfSWbU6CrXa7fZq9xQA-1">
          <mxGeometry x="350" y="230" width="290" height="110" as="geometry" />
        </mxCell>
        <mxCell id="adfSWbU6CrXa7fZq9xQA-9" value="Mount and fasten&lt;br&gt;&amp;nbsp;the Workpiece&amp;nbsp;" style="html=1;strokeColor=none;fillColor=none;align=center;verticalAlign=middle;rotatable=0;whiteSpace=wrap;" vertex="1" parent="adfSWbU6CrXa7fZq9xQA-8">
          <mxGeometry x="-10" y="11.79" width="290" height="47.8" as="geometry" />
        </mxCell>
        <mxCell id="adfSWbU6CrXa7fZq9xQA-10" value="" style="line;strokeWidth=1;fillColor=none;rotatable=0;labelPosition=right;points=[];portConstraint=eastwest;dashed=0;resizeWidth=1;" vertex="1" parent="adfSWbU6CrXa7fZq9xQA-8">
          <mxGeometry x="14.5" y="50.42" width="261" height="9.166666666666668" as="geometry" />
        </mxCell>
        <mxCell id="adfSWbU6CrXa7fZq9xQA-11" value="The workpiece needs to&amp;nbsp;&lt;br&gt;&amp;nbsp;be positioned on machine" style="text;html=1;align=center;verticalAlign=middle;rotatable=0;fillColor=none;strokeColor=none;whiteSpace=wrap;" vertex="1" parent="adfSWbU6CrXa7fZq9xQA-8">
          <mxGeometry x="10" y="65.99666666666667" width="290" height="27.500000000000004" as="geometry" />
        </mxCell>
        <mxCell id="adfSWbU6CrXa7fZq9xQA-16" value="" style="shape=ellipse;container=1;horizontal=1;horizontalStack=0;resizeParent=1;resizeParentMax=0;resizeLast=0;html=1;dashed=0;collapsible=0;" vertex="1" parent="adfSWbU6CrXa7fZq9xQA-1">
          <mxGeometry x="450" y="450" width="170" height="90" as="geometry" />
        </mxCell>
        <mxCell id="adfSWbU6CrXa7fZq9xQA-17" value="Cleaning" style="html=1;strokeColor=none;fillColor=none;align=center;verticalAlign=middle;rotatable=0;whiteSpace=wrap;" vertex="1" parent="adfSWbU6CrXa7fZq9xQA-16">
          <mxGeometry width="170" height="22.5" as="geometry" />
        </mxCell>
        <mxCell id="adfSWbU6CrXa7fZq9xQA-18" value="" style="line;strokeWidth=1;fillColor=none;rotatable=0;labelPosition=right;points=[];portConstraint=eastwest;dashed=0;resizeWidth=1;" vertex="1" parent="adfSWbU6CrXa7fZq9xQA-16">
          <mxGeometry x="8.5" y="22.5" width="153" height="7.5" as="geometry" />
        </mxCell>
        <mxCell id="adfSWbU6CrXa7fZq9xQA-19" value="Remove the swarf/chips and cutting oil" style="text;html=1;align=center;verticalAlign=middle;rotatable=0;fillColor=none;strokeColor=none;whiteSpace=wrap;" vertex="1" parent="adfSWbU6CrXa7fZq9xQA-16">
          <mxGeometry x="8.5" y="50" width="170" height="22.5" as="geometry" />
        </mxCell>
        <mxCell id="adfSWbU6CrXa7fZq9xQA-3" value="" style="shape=ellipse;container=1;horizontal=1;horizontalStack=0;resizeParent=1;resizeParentMax=0;resizeLast=0;html=1;dashed=0;collapsible=0;" vertex="1" parent="adfSWbU6CrXa7fZq9xQA-1">
          <mxGeometry x="350" y="40" width="170" height="90" as="geometry" />
        </mxCell>
        <mxCell id="adfSWbU6CrXa7fZq9xQA-4" value="Calibrating" style="html=1;strokeColor=none;fillColor=none;align=center;verticalAlign=middle;rotatable=0;whiteSpace=wrap;" vertex="1" parent="adfSWbU6CrXa7fZq9xQA-3">
          <mxGeometry width="170" height="22.5" as="geometry" />
        </mxCell>
        <mxCell id="adfSWbU6CrXa7fZq9xQA-5" value="" style="line;strokeWidth=1;fillColor=none;rotatable=0;labelPosition=right;points=[];portConstraint=eastwest;dashed=0;resizeWidth=1;" vertex="1" parent="adfSWbU6CrXa7fZq9xQA-3">
          <mxGeometry x="8.5" y="22.5" width="153" height="7.5" as="geometry" />
        </mxCell>
        <mxCell id="adfSWbU6CrXa7fZq9xQA-6" value="The position of the tooling head and the end point switches need a calibration" style="text;html=1;align=center;verticalAlign=middle;rotatable=0;fillColor=none;strokeColor=none;whiteSpace=wrap;" vertex="1" parent="adfSWbU6CrXa7fZq9xQA-3">
          <mxGeometry y="45" width="170" height="22.5" as="geometry" />
        </mxCell>
        <mxCell id="adfSWbU6CrXa7fZq9xQA-12" value="" style="shape=ellipse;container=1;horizontal=1;horizontalStack=0;resizeParent=1;resizeParentMax=0;resizeLast=0;html=1;dashed=0;collapsible=0;" vertex="1" parent="adfSWbU6CrXa7fZq9xQA-1">
          <mxGeometry x="500" y="100" width="310" height="120" as="geometry" />
        </mxCell>
        <mxCell id="adfSWbU6CrXa7fZq9xQA-13" value="Setup Production parameters" style="html=1;strokeColor=none;fillColor=none;align=center;verticalAlign=middle;rotatable=0;whiteSpace=wrap;" vertex="1" parent="adfSWbU6CrXa7fZq9xQA-12">
          <mxGeometry y="7" width="310" height="30" as="geometry" />
        </mxCell>
        <mxCell id="adfSWbU6CrXa7fZq9xQA-14" value="" style="line;strokeWidth=1;fillColor=none;rotatable=0;labelPosition=right;points=[];portConstraint=eastwest;dashed=0;resizeWidth=1;" vertex="1" parent="adfSWbU6CrXa7fZq9xQA-12">
          <mxGeometry x="15.5" y="30" width="279" height="10" as="geometry" />
        </mxCell>
        <mxCell id="adfSWbU6CrXa7fZq9xQA-15" value="Load the model into the machine control, set the milling parameters" style="text;html=1;align=center;verticalAlign=middle;rotatable=0;fillColor=none;strokeColor=none;whiteSpace=wrap;" vertex="1" parent="adfSWbU6CrXa7fZq9xQA-12">
          <mxGeometry y="60" width="310" height="30" as="geometry" />
        </mxCell>
        <mxCell id="adfSWbU6CrXa7fZq9xQA-26" value="" style="shape=ellipse;container=1;horizontal=1;horizontalStack=0;resizeParent=1;resizeParentMax=0;resizeLast=0;html=1;dashed=0;collapsible=0;" vertex="1" parent="adfSWbU6CrXa7fZq9xQA-1">
          <mxGeometry x="440" y="350" width="170" height="90" as="geometry" />
        </mxCell>
        <mxCell id="adfSWbU6CrXa7fZq9xQA-27" value="Change Toolhead" style="html=1;strokeColor=none;fillColor=none;align=center;verticalAlign=middle;rotatable=0;whiteSpace=wrap;" vertex="1" parent="adfSWbU6CrXa7fZq9xQA-26">
          <mxGeometry width="170" height="22.5" as="geometry" />
        </mxCell>
        <mxCell id="adfSWbU6CrXa7fZq9xQA-28" value="" style="line;strokeWidth=1;fillColor=none;rotatable=0;labelPosition=right;points=[];portConstraint=eastwest;dashed=0;resizeWidth=1;" vertex="1" parent="adfSWbU6CrXa7fZq9xQA-26">
          <mxGeometry x="8.5" y="22.5" width="153" height="7.5" as="geometry" />
        </mxCell>
        <mxCell id="adfSWbU6CrXa7fZq9xQA-29" value="Deppending on the material&amp;nbsp;&lt;br&gt;The milling cutter or tool head needs to be changed" style="text;html=1;align=center;verticalAlign=middle;rotatable=0;fillColor=none;strokeColor=none;whiteSpace=wrap;" vertex="1" parent="adfSWbU6CrXa7fZq9xQA-26">
          <mxGeometry y="45" width="170" height="22.5" as="geometry" />
        </mxCell>
        <mxCell id="adfSWbU6CrXa7fZq9xQA-22" value="" style="shape=ellipse;container=1;horizontal=1;horizontalStack=0;resizeParent=1;resizeParentMax=0;resizeLast=0;html=1;dashed=0;collapsible=0;" vertex="1" parent="adfSWbU6CrXa7fZq9xQA-1">
          <mxGeometry x="350" y="540" width="170" height="90" as="geometry" />
        </mxCell>
        <mxCell id="adfSWbU6CrXa7fZq9xQA-23" value="Maintainance" style="html=1;strokeColor=none;fillColor=none;align=center;verticalAlign=middle;rotatable=0;whiteSpace=wrap;" vertex="1" parent="adfSWbU6CrXa7fZq9xQA-22">
          <mxGeometry width="170" height="22.5" as="geometry" />
        </mxCell>
        <mxCell id="adfSWbU6CrXa7fZq9xQA-24" value="" style="line;strokeWidth=1;fillColor=none;rotatable=0;labelPosition=right;points=[];portConstraint=eastwest;dashed=0;resizeWidth=1;" vertex="1" parent="adfSWbU6CrXa7fZq9xQA-22">
          <mxGeometry x="8.5" y="22.5" width="153" height="7.5" as="geometry" />
        </mxCell>
        <mxCell id="adfSWbU6CrXa7fZq9xQA-25" value="Apply grease or oil&amp;nbsp;" style="text;html=1;align=center;verticalAlign=middle;rotatable=0;fillColor=none;strokeColor=none;whiteSpace=wrap;" vertex="1" parent="adfSWbU6CrXa7fZq9xQA-22">
          <mxGeometry y="45" width="170" height="22.5" as="geometry" />
        </mxCell>
        <mxCell id="adfSWbU6CrXa7fZq9xQA-37" style="edgeStyle=none;shape=connector;rounded=0;orthogonalLoop=1;jettySize=auto;html=1;exitX=0.5;exitY=0.5;exitDx=0;exitDy=0;exitPerimeter=0;entryX=0;entryY=0;entryDx=0;entryDy=0;labelBackgroundColor=default;strokeColor=default;fontFamily=Helvetica;fontSize=11;fontColor=default;endArrow=none;endFill=0;" edge="1" parent="adfSWbU6CrXa7fZq9xQA-1" source="adfSWbU6CrXa7fZq9xQA-2" target="adfSWbU6CrXa7fZq9xQA-25">
          <mxGeometry relative="1" as="geometry" />
        </mxCell>
        <mxCell id="adfSWbU6CrXa7fZq9xQA-43" style="edgeStyle=none;shape=connector;rounded=0;orthogonalLoop=1;jettySize=auto;html=1;exitX=0;exitY=0.5;exitDx=0;exitDy=0;entryX=0.5;entryY=0.5;entryDx=0;entryDy=0;entryPerimeter=0;labelBackgroundColor=default;strokeColor=default;fontFamily=Helvetica;fontSize=11;fontColor=default;endArrow=none;endFill=0;" edge="1" parent="adfSWbU6CrXa7fZq9xQA-1" source="adfSWbU6CrXa7fZq9xQA-39" target="adfSWbU6CrXa7fZq9xQA-2">
          <mxGeometry relative="1" as="geometry" />
        </mxCell>
        <mxCell id="adfSWbU6CrXa7fZq9xQA-39" value="" style="shape=ellipse;container=1;horizontal=1;horizontalStack=0;resizeParent=1;resizeParentMax=0;resizeLast=0;html=1;dashed=0;collapsible=0;" vertex="1" parent="adfSWbU6CrXa7fZq9xQA-1">
          <mxGeometry x="570" y="520" width="190" height="110" as="geometry" />
        </mxCell>
        <mxCell id="adfSWbU6CrXa7fZq9xQA-40" value="Observe Progress" style="html=1;strokeColor=none;fillColor=none;align=center;verticalAlign=middle;rotatable=0;whiteSpace=wrap;" vertex="1" parent="adfSWbU6CrXa7fZq9xQA-39">
          <mxGeometry width="190" height="27.500000000000004" as="geometry" />
        </mxCell>
        <mxCell id="adfSWbU6CrXa7fZq9xQA-41" value="" style="line;strokeWidth=1;fillColor=none;rotatable=0;labelPosition=right;points=[];portConstraint=eastwest;dashed=0;resizeWidth=1;" vertex="1" parent="adfSWbU6CrXa7fZq9xQA-39">
          <mxGeometry x="9.5" y="27.500000000000004" width="171" height="9.166666666666668" as="geometry" />
        </mxCell>
        <mxCell id="adfSWbU6CrXa7fZq9xQA-42" value="Observe (remotly) production&amp;nbsp;&lt;br&gt;progress / process" style="text;html=1;align=center;verticalAlign=middle;rotatable=0;fillColor=none;strokeColor=none;whiteSpace=wrap;" vertex="1" parent="adfSWbU6CrXa7fZq9xQA-39">
          <mxGeometry x="9.5" y="61.111111111111114" width="190" height="27.500000000000004" as="geometry" />
        </mxCell>
        <mxCell id="adfSWbU6CrXa7fZq9xQA-44" value="" style="rounded=0;whiteSpace=wrap;html=1;fontFamily=Helvetica;fontSize=11;fontColor=default;fillColor=none;" vertex="1" parent="adfSWbU6CrXa7fZq9xQA-1">
          <mxGeometry x="220" y="20" width="660" height="630" as="geometry" />
        </mxCell>
        <mxCell id="adfSWbU6CrXa7fZq9xQA-45" value="Author: Thomas&lt;br&gt;Version: v01&lt;br&gt;Changelog: 24.08.2023 - tms - v01 - creation" style="text;html=1;strokeColor=none;fillColor=none;align=center;verticalAlign=middle;whiteSpace=wrap;rounded=0;fontSize=11;fontFamily=Helvetica;fontColor=default;" vertex="1" parent="1">
          <mxGeometry x="60" y="10" width="390" height="30" as="geometry" />
        </mxCell>
        <mxCell id="adfSWbU6CrXa7fZq9xQA-46" value="Project CNC Milling Machine" style="text;html=1;strokeColor=none;fillColor=none;align=center;verticalAlign=middle;whiteSpace=wrap;rounded=0;fontSize=11;fontFamily=Helvetica;fontColor=default;" vertex="1" parent="1">
          <mxGeometry x="520" y="20" width="190" height="30" as="geometry" />
        </mxCell>
      </root>
    </mxGraphModel>
  </diagram>
  <diagram id="REPO3FMeQxBoIgI9-Veh" name="FunctArchtect1Lvl">
    <mxGraphModel dx="1385" dy="1334" grid="1" gridSize="10" guides="1" tooltips="1" connect="1" arrows="1" fold="1" page="1" pageScale="1" pageWidth="1169" pageHeight="827" math="0" shadow="0">
      <root>
        <mxCell id="0" />
        <mxCell id="1" parent="0" />
        <mxCell id="Q2HlYpTJTaGxmwvhQq3_-1" value="CNC Milling Machine" style="html=1;whiteSpace=wrap;fontFamily=Helvetica;fontSize=11;fontColor=default;" vertex="1" parent="1">
          <mxGeometry x="410" y="300" width="370" height="260" as="geometry" />
        </mxCell>
        <mxCell id="Q2HlYpTJTaGxmwvhQq3_-3" value="&lt;h1&gt;Functional Architecture&lt;/h1&gt;&lt;p&gt;First level - black box view&amp;nbsp;&lt;/p&gt;" style="text;html=1;strokeColor=none;fillColor=none;spacing=5;spacingTop=-20;whiteSpace=wrap;overflow=hidden;rounded=0;fontSize=11;fontFamily=Helvetica;fontColor=default;" vertex="1" parent="1">
          <mxGeometry x="30" y="30" width="330" height="120" as="geometry" />
        </mxCell>
        <mxCell id="Q2HlYpTJTaGxmwvhQq3_-5" value="out of scope" style="shape=umlFrame;whiteSpace=wrap;html=1;pointerEvents=0;recursiveResize=0;container=1;collapsible=0;width=160;fontFamily=Helvetica;fontSize=11;fontColor=default;" vertex="1" parent="1">
          <mxGeometry x="270" y="170" width="680" height="510" as="geometry" />
        </mxCell>
        <mxCell id="Q2HlYpTJTaGxmwvhQq3_-4" value="Room" style="text;html=1;strokeColor=none;fillColor=none;align=center;verticalAlign=middle;whiteSpace=wrap;rounded=0;fontSize=11;fontFamily=Helvetica;fontColor=default;" vertex="1" parent="Q2HlYpTJTaGxmwvhQq3_-5">
          <mxGeometry x="50" y="400" width="60" height="30" as="geometry" />
        </mxCell>
        <mxCell id="Q2HlYpTJTaGxmwvhQq3_-6" value="" style="html=1;rounded=0;fontFamily=Helvetica;fontSize=11;fontColor=default;" vertex="1" parent="Q2HlYpTJTaGxmwvhQq3_-5">
          <mxGeometry x="490" y="330" width="30" height="30" as="geometry" />
        </mxCell>
        <mxCell id="Q2HlYpTJTaGxmwvhQq3_-7" value="" style="endArrow=none;html=1;rounded=0;align=center;verticalAlign=top;endFill=0;labelBackgroundColor=none;endSize=2;strokeColor=default;fontFamily=Helvetica;fontSize=11;fontColor=default;shape=connector;" edge="1" source="Q2HlYpTJTaGxmwvhQq3_-6" target="Q2HlYpTJTaGxmwvhQq3_-8" parent="Q2HlYpTJTaGxmwvhQq3_-5">
          <mxGeometry relative="1" as="geometry" />
        </mxCell>
        <mxCell id="Q2HlYpTJTaGxmwvhQq3_-8" value="" style="shape=requiredInterface;html=1;fontSize=11;align=center;fillColor=none;points=[];aspect=fixed;resizable=0;verticalAlign=bottom;labelPosition=center;verticalLabelPosition=top;flipH=1;fontFamily=Helvetica;fontColor=default;" vertex="1" parent="Q2HlYpTJTaGxmwvhQq3_-5">
          <mxGeometry x="545" y="340" width="5" height="10" as="geometry" />
        </mxCell>
        <mxCell id="Q2HlYpTJTaGxmwvhQq3_-9" value="230 V" style="text;html=1;strokeColor=none;fillColor=none;align=center;verticalAlign=middle;whiteSpace=wrap;rounded=0;fontSize=11;fontFamily=Helvetica;fontColor=default;" vertex="1" parent="Q2HlYpTJTaGxmwvhQq3_-5">
          <mxGeometry x="550" y="330" width="60" height="30" as="geometry" />
        </mxCell>
        <mxCell id="Q2HlYpTJTaGxmwvhQq3_-10" value="" style="html=1;rounded=0;fontFamily=Helvetica;fontSize=11;fontColor=default;" vertex="1" parent="Q2HlYpTJTaGxmwvhQq3_-5">
          <mxGeometry x="490" y="200" width="30" height="30" as="geometry" />
        </mxCell>
        <mxCell id="Q2HlYpTJTaGxmwvhQq3_-11" value="" style="endArrow=none;html=1;rounded=0;align=center;verticalAlign=top;endFill=0;labelBackgroundColor=none;endSize=2;strokeColor=default;fontFamily=Helvetica;fontSize=11;fontColor=default;shape=connector;" edge="1" source="Q2HlYpTJTaGxmwvhQq3_-10" target="Q2HlYpTJTaGxmwvhQq3_-12" parent="Q2HlYpTJTaGxmwvhQq3_-5">
          <mxGeometry relative="1" as="geometry" />
        </mxCell>
        <mxCell id="Q2HlYpTJTaGxmwvhQq3_-12" value="" style="shape=requiredInterface;html=1;fontSize=11;align=center;fillColor=none;points=[];aspect=fixed;resizable=0;verticalAlign=bottom;labelPosition=center;verticalLabelPosition=top;flipH=1;fontFamily=Helvetica;fontColor=default;" vertex="1" parent="Q2HlYpTJTaGxmwvhQq3_-5">
          <mxGeometry x="545" y="210" width="5" height="10" as="geometry" />
        </mxCell>
        <mxCell id="Q2HlYpTJTaGxmwvhQq3_-18" value="" style="html=1;rounded=0;fontFamily=Helvetica;fontSize=11;fontColor=default;" vertex="1" parent="Q2HlYpTJTaGxmwvhQq3_-5">
          <mxGeometry x="490" y="260" width="30" height="30" as="geometry" />
        </mxCell>
        <mxCell id="Q2HlYpTJTaGxmwvhQq3_-19" value="" style="endArrow=none;html=1;rounded=0;align=center;verticalAlign=top;endFill=0;labelBackgroundColor=none;endSize=2;strokeColor=default;fontFamily=Helvetica;fontSize=11;fontColor=default;shape=connector;" edge="1" source="Q2HlYpTJTaGxmwvhQq3_-18" target="Q2HlYpTJTaGxmwvhQq3_-20" parent="Q2HlYpTJTaGxmwvhQq3_-5">
          <mxGeometry relative="1" as="geometry" />
        </mxCell>
        <mxCell id="Q2HlYpTJTaGxmwvhQq3_-20" value="" style="shape=requiredInterface;html=1;fontSize=11;align=center;fillColor=none;points=[];aspect=fixed;resizable=0;verticalAlign=bottom;labelPosition=center;verticalLabelPosition=top;flipH=1;fontFamily=Helvetica;fontColor=default;" vertex="1" parent="Q2HlYpTJTaGxmwvhQq3_-5">
          <mxGeometry x="545" y="270" width="5" height="10" as="geometry" />
        </mxCell>
        <mxCell id="Q2HlYpTJTaGxmwvhQq3_-21" value="www" style="text;html=1;strokeColor=none;fillColor=none;align=center;verticalAlign=middle;whiteSpace=wrap;rounded=0;fontSize=11;fontFamily=Helvetica;fontColor=default;" vertex="1" parent="Q2HlYpTJTaGxmwvhQq3_-5">
          <mxGeometry x="550" y="260" width="60" height="30" as="geometry" />
        </mxCell>
        <mxCell id="Q2HlYpTJTaGxmwvhQq3_-13" value="Mounting Point (Table ? or Floor ?)" style="text;html=1;strokeColor=none;fillColor=none;align=center;verticalAlign=middle;whiteSpace=wrap;rounded=0;fontSize=11;fontFamily=Helvetica;fontColor=default;" vertex="1" parent="1">
          <mxGeometry x="830" y="370" width="190" height="30" as="geometry" />
        </mxCell>
        <mxCell id="Q2HlYpTJTaGxmwvhQq3_-14" value="In Scope" style="text;html=1;strokeColor=none;fillColor=none;align=center;verticalAlign=middle;whiteSpace=wrap;rounded=0;fontSize=11;fontFamily=Helvetica;fontColor=default;" vertex="1" parent="1">
          <mxGeometry x="410" y="530" width="60" height="30" as="geometry" />
        </mxCell>
      </root>
    </mxGraphModel>
  </diagram>
  <diagram id="gtqXkCfXn6ty4bOhQ23c" name="FunctArchitec2ndLvl">
    <mxGraphModel dx="1385" dy="1334" grid="1" gridSize="10" guides="1" tooltips="1" connect="1" arrows="1" fold="1" page="1" pageScale="1" pageWidth="1169" pageHeight="827" math="0" shadow="0">
      <root>
        <mxCell id="0" />
        <mxCell id="1" parent="0" />
        <mxCell id="dZfAfwko6Xpg-rwCFaND-1" value="&lt;h1&gt;Functional Architecture&lt;/h1&gt;&lt;p&gt;Second level - black box view&amp;nbsp;&lt;/p&gt;" style="text;html=1;strokeColor=none;fillColor=none;spacing=5;spacingTop=-20;whiteSpace=wrap;overflow=hidden;rounded=0;fontSize=11;fontFamily=Helvetica;fontColor=default;" vertex="1" parent="1">
          <mxGeometry x="30" y="30" width="330" height="120" as="geometry" />
        </mxCell>
        <mxCell id="dZfAfwko6Xpg-rwCFaND-2" value="CNC Drilling Machine" style="shape=umlFrame;whiteSpace=wrap;html=1;pointerEvents=0;recursiveResize=0;container=1;collapsible=0;width=160;fontFamily=Helvetica;fontSize=11;fontColor=default;" vertex="1" parent="1">
          <mxGeometry x="170" y="170" width="810" height="540" as="geometry" />
        </mxCell>
        <mxCell id="dZfAfwko6Xpg-rwCFaND-11" style="edgeStyle=none;shape=connector;rounded=0;orthogonalLoop=1;jettySize=auto;html=1;exitX=1;exitY=0.5;exitDx=0;exitDy=0;entryX=0;entryY=0.5;entryDx=0;entryDy=0;labelBackgroundColor=default;strokeColor=default;fontFamily=Helvetica;fontSize=11;fontColor=default;endArrow=none;endFill=0;" edge="1" parent="dZfAfwko6Xpg-rwCFaND-2" source="dZfAfwko6Xpg-rwCFaND-3" target="dZfAfwko6Xpg-rwCFaND-5">
          <mxGeometry relative="1" as="geometry" />
        </mxCell>
        <mxCell id="dZfAfwko6Xpg-rwCFaND-3" value="CNC xyz Unit" style="html=1;align=center;verticalAlign=middle;dashed=0;whiteSpace=wrap;fontFamily=Helvetica;fontSize=11;fontColor=default;" vertex="1" parent="dZfAfwko6Xpg-rwCFaND-2">
          <mxGeometry x="260" y="170" width="180" height="60" as="geometry" />
        </mxCell>
        <mxCell id="dZfAfwko6Xpg-rwCFaND-10" style="edgeStyle=none;shape=connector;rounded=0;orthogonalLoop=1;jettySize=auto;html=1;exitX=0;exitY=0.5;exitDx=0;exitDy=0;labelBackgroundColor=default;strokeColor=default;fontFamily=Helvetica;fontSize=11;fontColor=default;endArrow=none;endFill=0;" edge="1" parent="dZfAfwko6Xpg-rwCFaND-2" source="dZfAfwko6Xpg-rwCFaND-4">
          <mxGeometry relative="1" as="geometry">
            <mxPoint x="200" y="260" as="targetPoint" />
          </mxGeometry>
        </mxCell>
        <mxCell id="dZfAfwko6Xpg-rwCFaND-12" style="edgeStyle=none;shape=connector;rounded=0;orthogonalLoop=1;jettySize=auto;html=1;exitX=1;exitY=0.5;exitDx=0;exitDy=0;labelBackgroundColor=default;strokeColor=default;fontFamily=Helvetica;fontSize=11;fontColor=default;endArrow=none;endFill=0;" edge="1" parent="dZfAfwko6Xpg-rwCFaND-2" source="dZfAfwko6Xpg-rwCFaND-4">
          <mxGeometry relative="1" as="geometry">
            <mxPoint x="520" y="250" as="targetPoint" />
          </mxGeometry>
        </mxCell>
        <mxCell id="dZfAfwko6Xpg-rwCFaND-4" value="Vaccuum System" style="html=1;align=center;verticalAlign=middle;dashed=0;whiteSpace=wrap;fontFamily=Helvetica;fontSize=11;fontColor=default;" vertex="1" parent="dZfAfwko6Xpg-rwCFaND-2">
          <mxGeometry x="260" y="280" width="180" height="60" as="geometry" />
        </mxCell>
        <mxCell id="dZfAfwko6Xpg-rwCFaND-13" style="edgeStyle=none;shape=connector;rounded=0;orthogonalLoop=1;jettySize=auto;html=1;exitX=0.5;exitY=0;exitDx=0;exitDy=0;entryX=0.5;entryY=1;entryDx=0;entryDy=0;labelBackgroundColor=default;strokeColor=default;fontFamily=Helvetica;fontSize=11;fontColor=default;endArrow=none;endFill=0;" edge="1" parent="dZfAfwko6Xpg-rwCFaND-2" source="dZfAfwko6Xpg-rwCFaND-5" target="dZfAfwko6Xpg-rwCFaND-8">
          <mxGeometry relative="1" as="geometry" />
        </mxCell>
        <mxCell id="dZfAfwko6Xpg-rwCFaND-5" value="Machine Control Unit (MCU)" style="html=1;align=center;verticalAlign=middle;dashed=0;whiteSpace=wrap;fontFamily=Helvetica;fontSize=11;fontColor=default;" vertex="1" parent="dZfAfwko6Xpg-rwCFaND-2">
          <mxGeometry x="520" y="220" width="180" height="60" as="geometry" />
        </mxCell>
        <mxCell id="dZfAfwko6Xpg-rwCFaND-9" style="edgeStyle=none;shape=connector;rounded=0;orthogonalLoop=1;jettySize=auto;html=1;exitX=1;exitY=0.5;exitDx=0;exitDy=0;entryX=0;entryY=0.5;entryDx=0;entryDy=0;labelBackgroundColor=default;strokeColor=default;fontFamily=Helvetica;fontSize=11;fontColor=default;endArrow=none;endFill=0;" edge="1" parent="dZfAfwko6Xpg-rwCFaND-2" source="dZfAfwko6Xpg-rwCFaND-6" target="dZfAfwko6Xpg-rwCFaND-3">
          <mxGeometry relative="1" as="geometry" />
        </mxCell>
        <mxCell id="dZfAfwko6Xpg-rwCFaND-6" value="Supporting Frame ?" style="html=1;align=center;verticalAlign=middle;dashed=0;whiteSpace=wrap;fontFamily=Helvetica;fontSize=11;fontColor=default;" vertex="1" parent="dZfAfwko6Xpg-rwCFaND-2">
          <mxGeometry x="20" y="230" width="180" height="60" as="geometry" />
        </mxCell>
        <mxCell id="dZfAfwko6Xpg-rwCFaND-8" value="CAD / CAM Generation" style="html=1;align=center;verticalAlign=middle;dashed=0;whiteSpace=wrap;fontFamily=Helvetica;fontSize=11;fontColor=default;" vertex="1" parent="dZfAfwko6Xpg-rwCFaND-2">
          <mxGeometry x="520" y="70" width="180" height="60" as="geometry" />
        </mxCell>
        <UserObject label="https://cdn.mechanicaljungle.com/wp-content/uploads/2021/05/CNC-Block-Diagram.jpg" link="https://cdn.mechanicaljungle.com/wp-content/uploads/2021/05/CNC-Block-Diagram.jpg" id="dZfAfwko6Xpg-rwCFaND-7">
          <mxCell style="text;html=1;strokeColor=none;fillColor=none;align=center;verticalAlign=middle;whiteSpace=wrap;rounded=0;fontSize=11;fontFamily=Helvetica;fontColor=default;" vertex="1" parent="1">
            <mxGeometry x="230" y="770" width="60" height="30" as="geometry" />
          </mxCell>
        </UserObject>
      </root>
    </mxGraphModel>
  </diagram>
</mxfile>
